<svg xmlns="http://www.w3.org/2000/svg" width="125" height="119" viewBox="0 0 125 119">
    <g fill="none" fill-rule="evenodd">
        <path fill="#FFA75B" fill-rule="nonzero" d="M48 115L4 94.847V41l27.505 12.597 16.492 7.551V115z"/>
        <path fill="#FFF" fill-rule="nonzero" d="M124.995 32.094c-.164-9.27-4.302-18.075-11.356-24.15-7.15-6.157-16.302-8.87-25.783-7.664-11.97 1.536-22.075 9.827-26.304 20.795l-10.986-4.888a1.885 1.885 0 0 0-1.544 0L1.125 37.501c-.037.018-.065.046-.102.064-.052.029-.106.045-.156.076-.042.026-.073.06-.112.09-.055.045-.107.086-.159.135-.075.07-.143.15-.205.234-.04.052-.079.101-.112.158a1.9 1.9 0 0 0-.144.304c-.02.054-.046.1-.06.155a1.83 1.83 0 0 0-.075.506v56.573c0 .744.44 1.419 1.122 1.722l47.897 21.316c.031.016.065.008.096.02.216.084.438.14.667.143.003 0 .005.003.008.003h.002c.003 0 .006-.003.008-.003a1.85 1.85 0 0 0 .667-.142c.031-.013.065-.005.096-.021l47.902-21.316a1.887 1.887 0 0 0 1.122-1.722V64.469c14.789-3.445 25.676-16.924 25.408-32.375zM49.792 19.977l10.628 4.727c-.344 1.351-.628 2.726-.79 4.135-.109.944-.171 1.89-.197 2.838L24.509 47.216 6.544 39.223l43.248-19.246zM47.9 114.201L3.792 94.574v-52.44L31.363 54.4l16.534 7.355V114.2h.002zm1.893-55.735l-20.64-9.183L59.59 35.737c.531 5.546 2.44 10.887 5.653 15.502.06.09.104.19.16.283l-15.61 6.944zm46.012 36.108L51.69 114.2V61.753l14.043-6.244-.997 10.14a1.887 1.887 0 0 0 1.885 2.073c.193 0 .388-.031.579-.09l12.23-3.902c.868-.278 1.764-.288 2.522-.044a32.446 32.446 0 0 0 13.582 1.486c.091-.01.177-.031.269-.041v29.443zm-.651-33.156a28.708 28.708 0 0 1-12.008-1.312c-1.536-.506-3.216-.496-4.867.028l-9.492 3.028.87-8.836c.185-1.901-.273-3.764-1.3-5.237-4.01-5.76-5.772-12.8-4.963-19.822C64.888 16.3 75.38 5.684 88.34 4.023c8.383-1.084 16.497 1.329 22.822 6.774 6.242 5.372 9.904 13.16 10.047 21.362.258 14.89-11.187 27.744-26.056 29.26z"/>
        <path fill="#F5821F" fill-rule="nonzero" d="M92.502 47C90.13 45.438 79 37.686 79 29.95c0-3.833 3.08-6.95 6.865-6.95 2.412 0 4.676 1.313 5.91 3.427.304.519 1.148.519 1.452 0C94.46 24.313 96.725 23 99.135 23c3.786 0 6.865 3.117 6.865 6.95.002 7.73-11.128 15.486-13.498 17.05z"/>
        <path d="M99.272 21c-2.633 0-5.126 1.222-6.771 3.259C90.856 22.222 88.36 21 85.729 21 80.916 21 77 24.945 77 29.79c0 9.712 14.437 18.706 15.052 19.082a.852.852 0 0 0 .897 0c.616-.376 15.051-9.37 15.051-19.081.001-4.846-3.916-8.791-8.728-8.791zm-6.771 26.104c-2.42-1.586-13.78-9.457-13.78-17.313 0-3.892 3.143-7.057 7.007-7.057 2.461 0 4.772 1.333 6.03 3.48.312.526 1.172.526 1.483 0 1.258-2.147 3.57-3.48 6.029-3.48 3.863 0 7.006 3.165 7.006 7.057.002 7.848-11.356 15.725-13.775 17.313z"/>
    </g>
</svg>
