<svg xmlns="http://www.w3.org/2000/svg" width="120" height="121" viewBox="0 0 120 121">
    <g fill="none" fill-rule="evenodd">
        <path d="M-7-8h136v136H-7z"/>
        <g fill-rule="nonzero">
            <path fill="#FFA75B" d="M60.816 23.107c-.15.02-.289.044-.417.067.13.722.277 1.607.417 2.575v10.118c-1.712 4.966-5.365 9.474-8.6 13.466-2.471 3.053-5.025 6.204-5.025 7.818v28.424c0 .608.494 1.103 1.1 1.103h12.525v25.346a1.786 1.786 0 0 0-.773-.173c-.265 0-.526.055-.773.173l-10.333 4.88-7.685-8.48c-.364-.402-.898-.633-1.426-.592l-11.408.543-3.866-10.785a1.816 1.816 0 0 0-1.093-1.098l-10.75-3.877.545-11.445a1.83 1.83 0 0 0-.591-1.434L4.21 72.025l4.868-10.371a1.806 1.806 0 0 0 0-1.547L4.21 49.733l8.453-7.706c.399-.365.618-.893.59-1.436l-.543-11.448 10.75-3.877c.508-.185.91-.585 1.092-1.096l3.866-10.784 11.408.546a1.804 1.804 0 0 0 1.426-.596l7.685-8.48L59.27 9.738a1.8 1.8 0 0 0 1.546 0v13.37zm-25.148 61.62V59.523a1.95 1.95 0 0 0-1.945-1.955H30.12a1.952 1.952 0 0 0-1.948 1.955v25.202c0 1.079.873 1.955 1.948 1.955h3.602a1.95 1.95 0 0 0 1.945-1.955z"/>
            <path fill="#FFF" d="M114.653 60.88l5.076-10.809a1.83 1.83 0 0 0-.42-2.122l-8.81-8.04.565-11.937a1.821 1.821 0 0 0-1.197-1.8l-11.206-4.041-4.03-11.245c-.27-.749-1.025-1.247-1.793-1.202l-11.895.571-8.01-8.842A1.815 1.815 0 0 0 70.814.99L60.043 6.083 49.27.99a1.819 1.819 0 0 0-2.118.423l-8.01 8.842-11.895-.57c-.773-.043-1.521.455-1.793 1.2l-4.03 11.246-11.207 4.041c-.75.27-1.237.999-1.197 1.8l.566 11.938-8.811 8.039a1.822 1.822 0 0 0-.42 2.122l5.076 10.81L.357 71.691a1.83 1.83 0 0 0 .419 2.122l8.811 8.04-.566 11.932c-.037.801.447 1.53 1.197 1.805l11.206 4.042 4.03 11.242a1.852 1.852 0 0 0 1.794 1.204l11.894-.571 8.011 8.842a1.813 1.813 0 0 0 2.118.42l10.772-5.09 10.772 5.09a1.824 1.824 0 0 0 2.117-.42l8.011-8.842 11.895.57a1.807 1.807 0 0 0 1.793-1.203l4.03-11.242 11.206-4.042a1.82 1.82 0 0 0 1.197-1.805l-.566-11.933 8.812-8.039c.589-.538.76-1.399.419-2.122l-5.076-10.812zm-7.23 18.856c-.399.365-.618.89-.591 1.434l.544 11.445-10.75 3.877c-.509.185-.91.585-1.092 1.098l-3.866 10.785-11.408-.543a1.773 1.773 0 0 0-1.427.593l-7.684 8.479-10.333-4.88a1.786 1.786 0 0 0-.773-.173c-.265 0-.526.055-.773.173l-10.333 4.88-7.685-8.48c-.364-.402-.898-.633-1.426-.592l-11.408.543-3.866-10.785a1.816 1.816 0 0 0-1.093-1.098l-10.75-3.877.545-11.445a1.83 1.83 0 0 0-.591-1.434L4.21 72.025l4.868-10.371a1.806 1.806 0 0 0 0-1.547L4.21 49.733l8.453-7.706c.399-.365.618-.893.59-1.436l-.543-11.448 10.75-3.877c.508-.185.91-.585 1.092-1.096l3.866-10.784 11.408.546a1.804 1.804 0 0 0 1.426-.596l7.685-8.48L59.27 9.738a1.8 1.8 0 0 0 1.546 0l10.333-4.88 7.684 8.479c.364.403.883.62 1.427.596l11.408-.546 3.866 10.784c.182.51.583.911 1.092 1.096l10.75 3.877-.544 11.448a1.836 1.836 0 0 0 .591 1.436l8.453 7.706-4.869 10.374a1.806 1.806 0 0 0 0 1.547l4.869 10.371-8.453 7.71z"/>
            <path fill="#FFF" d="M96.242 57.309c1.023-1.289 1.763-3.154 1.763-5.566 0-4.172-3.205-7.701-7-7.701H73.355c.504-2.495.995-6.28.614-10.54-.736-8.253-4.746-13.937-9.974-14.144-4.45-.178-6.298.808-6.624 1.008a1.821 1.821 0 0 0-.83 1.915c.722 3.574 1.623 10 .96 12.063-1.442 4.475-4.979 8.842-8.099 12.694-3.262 4.027-5.839 7.21-5.839 10.113v28.424c0 2.618 2.123 4.745 4.73 4.745h36.934c.217 0 .43-.018.574-.043 4.28-.41 7.507-3.974 7.507-8.291 0-.7-.09-1.402-.264-2.08 2.75-1.389 4.594-4.252 4.594-7.433a8.312 8.312 0 0 0-1.16-4.237 8.379 8.379 0 0 0 2.023-5.441c-.005-2.383-.94-4.27-2.26-5.486zm-3.51 11.955a4.704 4.704 0 0 1 1.275 3.211 4.706 4.706 0 0 1-3.706 4.575 1.804 1.804 0 0 0-1.272 1.022c-.24.52-.217 1.128.057 1.631.387.704.592 1.497.592 2.283a4.665 4.665 0 0 1-4.225 4.667l-.227.025H48.29c-.606 0-1.1-.495-1.1-1.103V57.15c0-1.614 2.554-4.765 5.025-7.818 3.322-4.1 7.086-8.745 8.735-13.87.93-2.891.012-9.135-.552-12.289.746-.137 1.869-.248 3.45-.18 3.222.128 5.956 4.683 6.504 10.837.482 5.348-.57 9.853-1.045 11.54a1.82 1.82 0 0 0 1.746 2.312h19.95c1.592 0 3.375 1.737 3.375 4.06 0 2.946-1.549 3.927-1.903 4.027a1.822 1.822 0 0 0 .06 3.641c.815 0 2.337.994 2.337 3.389a4.648 4.648 0 0 1-1.893 3.764 1.82 1.82 0 0 0-.247 2.7zM33.723 53.925H30.12c-3.075 0-5.574 2.51-5.574 5.596v25.203c0 3.083 2.499 5.593 5.574 5.593h3.602c3.072 0 5.574-2.51 5.574-5.593V59.52c0-3.086-2.502-5.596-5.574-5.596zm1.945 30.801a1.95 1.95 0 0 1-1.945 1.955H30.12a1.952 1.952 0 0 1-1.948-1.955V59.524c0-1.081.876-1.955 1.948-1.955h3.602a1.95 1.95 0 0 1 1.945 1.955v25.202z"/>
        </g>
    </g>
</svg>
