<svg xmlns="http://www.w3.org/2000/svg" width="123" height="120" viewBox="0 0 123 120">
    <g fill="none" fill-rule="evenodd">
        <path d="M-7-8h136v136H-7z"/>
        <path fill="#FFA75B" fill-rule="nonzero" d="M81.772 53.364a22.09 22.09 0 0 1-3.737-.395 1.854 1.854 0 0 0-2.233 1.782c-.03 1.663-.302 2.984-.605 3.954-8.76-8.82-11.08-21.242-11.667-25.957h.402c2.037 0 3.88-.767 5.318-1.989l2.387.879c.353 3.623 2.077 15.175 10.135 21.726zM47.767 58.7c-.304-.972-.576-2.289-.604-3.954a1.864 1.864 0 0 0-.697-1.413 1.863 1.863 0 0 0-1.54-.37 21.524 21.524 0 0 1-3.734.396c8.061-6.552 9.785-18.116 10.138-21.737l2.367-.873c1.44 1.222 3.281 1.989 5.32 1.989h.423c-.582 4.71-2.884 17.12-11.673 25.962zM29.966 25.632c.717-2.23.791-4.573.297-6.844 2.223.697 4.902 1.066 7.61 1.066 3.01 0 6.022-.43 8.365-1.296l4.836-1.782c-.171.66-.294 1.337-.294 2.052v5.737c0 1.092.225 2.133.617 3.086l-6.457 2.38c-3.83 1.416-10.305 1.413-14.14 0-1.224-.45-1.718-.87-1.897-1.074l1.063-3.325z"/>
        <path d="M67.772 26.866c-.792 1.296-2.208 2.175-3.84 2.175h-4.92a4.502 4.502 0 0 1-3.842-2.175V16.522a4.497 4.497 0 0 1 3.842-2.172h4.92c1.632 0 3.048.876 3.84 2.172v10.344z"/>
        <path fill="#FFA75B" fill-rule="nonzero" d="M71.545 27.648a8.093 8.093 0 0 0 .617-3.086v-5.736c0-.713-.12-1.393-.294-2.052l4.838 1.782c2.346.866 5.353 1.296 8.363 1.296 2.705 0 5.387-.37 7.61-1.067-.492 2.274-.42 4.616.297 6.844l1.065 3.328c-.207.226-.753.652-1.9 1.072-3.83 1.415-10.305 1.413-14.142 0l-6.454-2.381z"/>
        <path fill="#F5821F" fill-rule="nonzero" d="M33.206 103.43l-4.483-1.988-1.836-.815V41.456l6.319 2.808zM96.07 100.624l-4.31 1.912-2.011.894V44.261l6.321-2.808z"/>
        <path fill="#FFF" fill-rule="nonzero" d="M122.867 27.798c-.005-.023-.015-.038-.02-.056a1.962 1.962 0 0 0-.185-.392c-.023-.038-.05-.069-.076-.107a1.6 1.6 0 0 0-.361-.374c-.044-.036-.08-.074-.126-.104-.054-.036-.113-.054-.17-.082-.032-.015-.053-.04-.086-.053L97.389 15.77l.067-.218c.307-.601.392-1.156.392-1.571 0-1.105-.574-3.165-4.414-4.583-3.468-1.281-8.396-1.607-12.627-.99L62.232.16a1.878 1.878 0 0 0-1.52 0L42.138 8.407c-4.228-.616-9.157-.29-12.63.99-3.84 1.419-4.413 3.479-4.413 4.584 0 .415.084.97.392 1.57l.064.22L1.1 26.63c-.04.017-.066.048-.105.063-.048.028-.102.044-.148.072-.041.025-.07.058-.108.089-.056.045-.11.086-.161.137a1.734 1.734 0 0 0-.192.22 2.39 2.39 0 0 0-.118.162 2.31 2.31 0 0 0-.136.29c-.02.054-.048.102-.061.16-.046.161-.072.324-.072.495v63.224c0 .731.43 1.396 1.104 1.693l23.155 10.282 2.32 1.028 34.134 15.157c.03.015.069.01.102.023.208.079.42.132.64.135.006 0 .008.005.016.005h.005c.005 0 .008-.005.015-.005a1.79 1.79 0 0 0 .64-.135c.034-.013.072-.008.103-.023l29.326-13.02 7.128-3.165c.002-.003.002-.003.005-.003l23.147-10.279a1.856 1.856 0 0 0 1.105-1.693V28.318a1.695 1.695 0 0 0-.078-.52zM86.022 51.78c-1.745-1.06-3.205-2.398-4.429-3.9l4.429-1.966v5.866zm-4.25 1.584a22.09 22.09 0 0 1-3.737-.395 1.854 1.854 0 0 0-2.233 1.782c-.03 1.663-.302 2.984-.605 3.954-8.76-8.82-11.08-21.242-11.667-25.957h.402c2.037 0 3.88-.767 5.318-1.989l2.387.879c.353 3.623 2.077 15.175 10.135 21.726zM47.767 58.7c-.304-.972-.576-2.289-.604-3.954a1.864 1.864 0 0 0-.697-1.413 1.863 1.863 0 0 0-1.54-.37 21.524 21.524 0 0 1-3.734.396c8.061-6.552 9.785-18.116 10.138-21.737l2.367-.873c1.44 1.222 3.281 1.989 5.32 1.989h.423c-.582 4.71-2.884 17.12-11.673 25.962zM36.93 51.79v-5.879l4.442 1.97c-1.227 1.508-2.692 2.85-4.442 3.91zm-6.964-26.158c.717-2.23.791-4.573.297-6.844 2.223.697 4.902 1.066 7.61 1.066 3.01 0 6.022-.43 8.365-1.296l4.836-1.782c-.171.66-.294 1.337-.294 2.052v5.737c0 1.092.225 2.133.617 3.086l-6.457 2.38c-3.83 1.416-10.305 1.413-14.14 0-1.224-.45-1.718-.87-1.897-1.074l1.063-3.325zm37.806 1.234c-.792 1.296-2.208 2.175-3.84 2.175h-4.92a4.502 4.502 0 0 1-3.842-2.175V16.522a4.497 4.497 0 0 1 3.842-2.172h4.92c1.632 0 3.048.876 3.84 2.172v10.344zm3.773.782a8.093 8.093 0 0 0 .617-3.086v-5.736c0-.713-.12-1.393-.294-2.052l4.838 1.782c2.346.866 5.353 1.296 8.363 1.296 2.705 0 5.387-.37 7.61-1.067-.492 2.274-.42 4.616.297 6.844l1.065 3.328c-.207.226-.753.652-1.9 1.072-3.83 1.415-10.305 1.413-14.142 0l-6.454-2.381zm20.596-14.78c1.299.479 1.772.92 1.929 1.11-.16.188-.633.626-1.93 1.108-3.833 1.415-10.309 1.415-14.14 0l-3.008-1.108L78 12.868c3.832-1.413 10.308-1.413 14.142 0zm-30.668-8.99L75.174 9.96l-6.185 2.282c-.016.005-.026.015-.041.02-.034.015-.062.03-.095.048-1.378-1.028-3.069-1.66-4.92-1.66h-4.921c-1.852 0-3.543.632-4.918 1.66-.033-.015-.064-.033-.097-.048-.013-.005-.026-.015-.041-.02L47.77 9.96l13.703-6.082zm-30.67 8.99c3.835-1.416 10.31-1.416 14.14 0l3.006 1.11-3.007 1.108c-3.83 1.415-10.304 1.415-14.139 0-1.298-.48-1.772-.917-1.928-1.108.156-.188.63-.631 1.928-1.11zm-7.645 86.101L3.729 90.343V31.174l19.429 8.627v59.168zm2.594-62.076a.043.043 0 0 1-.013-.005l-19.305-8.57 20.156-8.952c.407 1.7.366 3.465-.172 5.14l-1.232 3.852c-.056.181-.087.372-.087.566 0 1.102.574 3.164 4.413 4.58 2.347.866 5.354 1.296 8.366 1.296 3.01 0 6.022-.43 8.365-1.296l1.138-.42c-.438 2.854-1.494 7.478-3.886 11.69l-7.692-3.418-.01-.002-10.04-4.461zm7.454 66.537l-4.483-1.988-1.836-.815V41.456l6.319 2.808v59.166zm26.405 11.725l-22.678-10.07v-48.19c1.67.168 4.093.298 6.654.018.474 3.758 1.898 5.754 2.085 6.001.313.41.779.675 1.294.726a1.883 1.883 0 0 0 1.416-.438c3.092-2.664 5.556-5.716 7.52-8.868l3.712 1.647v59.174h-.003zm1.862-62.405l-3.742-1.66c1.704-3.315 2.91-6.63 3.748-9.606.827 2.95 2.023 6.268 3.734 9.606l-3.74 1.66zm1.87 62.405V55.984l3.71-1.648c1.953 3.134 4.418 6.19 7.53 8.868a1.877 1.877 0 0 0 1.416.438 1.86 1.86 0 0 0 1.291-.725c.187-.25 1.614-2.246 2.085-6.002 2.559.28 4.974.153 6.644-.017v48.19l-22.676 10.067zm32.727-14.53l-4.31 1.911-2.011.894V44.261l6.321-2.808v59.171zM79.477 44.76c-2.382-4.2-3.442-8.817-3.885-11.671l1.111.413c2.347.865 5.354 1.295 8.363 1.295 3.01 0 6.022-.43 8.366-1.295 3.84-1.414 4.413-3.476 4.413-4.58 0-.192-.03-.383-.087-.566l-1.235-3.852a9.537 9.537 0 0 1-.171-5.143l20.16 8.954L79.478 44.76zm39.748 45.583L99.797 98.97V39.798l19.428-8.624v59.17z"/>
    </g>
</svg>
