<svg width="89" height="83" viewBox="0 0 89 83" fill="none" xmlns="http://www.w3.org/2000/svg">
<path d="M48.0192 9.51708L27.4751 28.6763C26.103 29.9558 25.3242 31.7196 25.3242 33.5525V68.1013C25.3242 71.9054 28.6617 75.0179 32.7409 75.0179H66.1159C69.0826 75.0179 71.7526 73.3579 72.9392 70.8333L85.0284 44.5154C88.1434 37.6679 82.7663 30.0596 74.7934 30.0596H53.8413L57.3642 14.2204C57.7351 12.4913 57.1788 10.7275 55.8438 9.4825C53.6559 7.47667 50.1701 7.47667 48.0192 9.51708ZM10.4909 75.0179C14.5701 75.0179 17.9076 71.9054 17.9076 68.1013V40.4346C17.9076 36.6304 14.5701 33.5179 10.4909 33.5179C6.41172 33.5179 3.07422 36.6304 3.07422 40.4346V68.1013C3.07422 71.9054 6.41172 75.0179 10.4909 75.0179Z" fill="#00B0B9"/>
</svg>
