<?xml version="1.0" encoding="UTF-8"?>
<svg width="24px" height="24px" viewBox="0 0 24 24" version="1.1" xmlns="http://www.w3.org/2000/svg" xmlns:xlink="http://www.w3.org/1999/xlink">
    <!-- Generator: sketchtool 51.1 (57501) - http://www.bohemiancoding.com/sketch -->
    <title>F694012A-7D26-4112-884A-F16012E067BD</title>
    <desc>Created with sketchtool.</desc>
    <defs></defs>
    <g id="Burger-Menu" stroke="none" stroke-width="1" fill="none" fill-rule="evenodd">
        <g id="Burger-Menu---Visitor" transform="translate(-78.000000, -370.000000)">
            <g id="Menu" transform="translate(60.000000, 0.000000)">
                <g id="ic-tentang-perusahaan" transform="translate(15.000000, 367.000000)">
                    <rect id="Rectangle" x="0" y="0" width="30" height="30"></rect>
                    <g id="Group" transform="translate(3.000000, 3.000000)" fill="#FFAD00">
                        <polygon id="Path" fill-opacity="0.2" points="2.57779592 0.195918367 7.91265306 0.195918367 7.91265306 4.17550374 7.91265306 5.92605933 7.91265306 22.9949388 2.57779592 22.9949388"></polygon>
                        <path d="M23.5949388,22.9949388 L22.5257143,22.9949388 L22.5257143,7.79363265 C22.5257143,7.59673469 22.3665306,7.43706122 22.1691429,7.43706122 L20.2060408,7.43706122 L20.2060408,6.23461224 C20.2060408,6.03820408 20.0468571,5.87853061 19.8494694,5.87853061 L13.2465306,5.87853061 L13.2465306,2.68995918 L13.4331429,2.68995918 C13.6300408,2.68995918 13.7897143,2.53077551 13.7897143,2.33338776 C13.7897143,2.136 13.6305306,1.97681633 13.4331429,1.97681633 L13.2465306,1.97681633 L13.2465306,0.552 C13.2465306,0.355591837 13.0873469,0.195918367 12.890449,0.195918367 L2.22073469,0.195918367 C2.02383673,0.195918367 1.86465306,0.355102041 1.86465306,0.552 L1.86465306,1.97681633 L1.67755102,1.97681633 C1.48065306,1.97681633 1.32146939,2.136 1.32146939,2.33338776 C1.32146939,2.53077551 1.48065306,2.68995918 1.67755102,2.68995918 L1.86465306,2.68995918 L1.86465306,22.994449 L0.796408163,22.994449 C0.599510204,22.994449 0.440326531,23.1536327 0.440326531,23.3510204 C0.440326531,23.5474286 0.599510204,23.707102 0.796408163,23.707102 L2.22073469,23.707102 L12.890449,23.707102 L22.1686531,23.707102 L23.594449,23.707102 C23.7913469,23.707102 23.9510204,23.5479184 23.9510204,23.3510204 C23.9515102,23.1541224 23.7923265,22.9949388 23.5949388,22.9949388 Z M19.4938776,6.59118367 L19.4938776,7.43755102 L13.2470204,7.43755102 L13.2470204,6.59118367 L19.4938776,6.59118367 Z M2.57779592,0.909061224 L12.5343673,0.909061224 L12.5343673,1.97779592 L2.57779592,1.97779592 L2.57779592,0.909061224 Z M2.57779592,2.69044898 L12.5343673,2.69044898 L12.5343673,6.23461224 L12.5343673,7.79363265 L12.5343673,22.9949388 L2.57779592,22.9949388 L2.57779592,2.69044898 Z M13.2470204,22.9949388 L13.2470204,8.14922449 L19.8499592,8.14922449 L21.813551,8.14922449 L21.813551,22.9949388 L13.2470204,22.9949388 Z" id="Shape" fill-rule="nonzero"></path>
                        <path d="M4.88914286,3.816 C4.6922449,3.816 4.53257143,3.97518367 4.53257143,4.17208163 L4.53257143,20.4989388 C4.53257143,20.6953469 4.6922449,20.8550204 4.88914286,20.8550204 C5.08555102,20.8550204 5.24522449,20.6958367 5.24522449,20.4989388 L5.24522449,4.17208163 C5.24473469,3.97518367 5.08555102,3.816 4.88914286,3.816 Z" id="Shape" fill-rule="nonzero"></path>
                        <path d="M7.55608163,3.816 C7.35918367,3.816 7.2,3.97518367 7.2,4.17208163 L7.2,20.4989388 C7.2,20.6953469 7.35918367,20.8550204 7.55608163,20.8550204 C7.75297959,20.8550204 7.91265306,20.6958367 7.91265306,20.4989388 L7.91265306,4.17208163 C7.91216327,3.97518367 7.75297959,3.816 7.55608163,3.816 Z" id="Shape" fill-rule="nonzero"></path>
                        <path d="M10.2235102,3.816 C10.0266122,3.816 9.86742857,3.97518367 9.86742857,4.17208163 L9.86742857,20.4989388 C9.86742857,20.6953469 10.0266122,20.8550204 10.2235102,20.8550204 C10.4204082,20.8550204 10.5800816,20.6958367 10.5800816,20.4989388 L10.5800816,4.17208163 C10.5800816,3.97518367 10.4204082,3.816 10.2235102,3.816 Z" id="Shape" fill-rule="nonzero"></path>
                        <path d="M14.956898,9.51379592 C14.8922449,9.58138776 14.853551,9.67395918 14.853551,9.76653061 C14.853551,9.85910204 14.8922449,9.95167347 14.9603265,10.0197551 C15.0244898,10.0873469 15.1170612,10.123102 15.2096327,10.123102 C15.3022041,10.123102 15.3947755,10.0873469 15.4628571,10.0197551 C15.530449,9.95167347 15.5657143,9.85959184 15.5657143,9.76653061 C15.5657143,9.67444898 15.5299592,9.58138776 15.4628571,9.51379592 C15.3266939,9.38204082 15.0920816,9.38204082 14.956898,9.51379592 Z" id="Shape" fill-rule="nonzero"></path>
                        <path d="M15.2091429,17.0586122 C15.0137143,17.0586122 14.8530612,17.2187755 14.8530612,17.4151837 C14.8530612,17.6140408 15.0137143,17.7712653 15.2091429,17.7712653 C15.4050612,17.7712653 15.5657143,17.6145306 15.5657143,17.4151837 C15.5657143,17.2187755 15.4050612,17.0586122 15.2091429,17.0586122 Z" id="Shape" fill-rule="nonzero"></path>
                        <path d="M15.2091429,15.148898 C15.0137143,15.148898 14.8530612,15.3051429 14.8530612,15.5049796 C14.8530612,15.7013878 15.0137143,15.861551 15.2091429,15.861551 C15.4050612,15.861551 15.5657143,15.7018776 15.5657143,15.5049796 C15.5657143,15.3056327 15.4050612,15.148898 15.2091429,15.148898 Z" id="Shape" fill-rule="nonzero"></path>
                        <circle id="Oval" fill-rule="nonzero" cx="15.2091429" cy="11.6796735" r="1"></circle>
                        <path d="M15.2091429,13.2362449 C15.0137143,13.2362449 14.8530612,13.3924898 14.8530612,13.5928163 C14.8530612,13.7882449 15.0137143,13.9493878 15.2091429,13.9493878 C15.4050612,13.9493878 15.5657143,13.7887347 15.5657143,13.5928163 C15.5657143,13.3924898 15.4050612,13.2362449 15.2091429,13.2362449 Z" id="Shape" fill-rule="nonzero"></path>
                        <circle id="Oval" fill-rule="nonzero" cx="15.2091429" cy="19.3273469" r="1"></circle>
                        <path d="M14.956898,20.9872653 C14.8922449,21.0553469 14.853551,21.144 14.853551,21.2404898 C14.853551,21.3325714 14.8922449,21.4256327 14.956898,21.4932245 C15.0244898,21.5578776 15.1170612,21.5965714 15.2096327,21.5965714 C15.3056327,21.5965714 15.3947755,21.5578776 15.4628571,21.4932245 C15.5265306,21.4256327 15.5657143,21.3330612 15.5657143,21.2404898 C15.5657143,21.1444898 15.5265306,21.0553469 15.4628571,20.9872653 C15.3306122,20.856 15.0886531,20.856 14.956898,20.9872653 Z" id="Shape" fill-rule="nonzero"></path>
                        <path d="M17.5283265,10.1226122 C17.6248163,10.1226122 17.7173878,10.0834286 17.781551,10.0192653 C17.8491429,9.95118367 17.8844082,9.86253061 17.8844082,9.76604082 C17.8844082,9.67395918 17.8486531,9.58089796 17.781551,9.51330612 C17.6493061,9.38106122 17.4073469,9.38106122 17.2790204,9.51330612 C17.2114286,9.58089796 17.1756735,9.66955102 17.1756735,9.76604082 C17.1756735,9.86253061 17.2114286,9.95461224 17.2790204,10.0192653 C17.3436735,10.0834286 17.4357551,10.1226122 17.5283265,10.1226122 Z" id="Shape" fill-rule="nonzero"></path>
                        <path d="M17.5283265,13.2362449 C17.332898,13.2362449 17.1722449,13.3964082 17.1722449,13.5928163 C17.1722449,13.7882449 17.332898,13.9493878 17.5283265,13.9493878 C17.7281633,13.9493878 17.8883265,13.7887347 17.8883265,13.5928163 C17.8878367,13.3964082 17.7281633,13.2362449 17.5283265,13.2362449 Z" id="Shape" fill-rule="nonzero"></path>
                        <path d="M17.5283265,11.3235918 C17.332898,11.3235918 17.1722449,11.4832653 17.1722449,11.6796735 C17.1722449,11.8760816 17.332898,12.0362449 17.5283265,12.0362449 C17.7281633,12.0362449 17.8883265,11.8760816 17.8883265,11.6796735 C17.8883265,11.4832653 17.7281633,11.3235918 17.5283265,11.3235918 Z" id="Shape" fill-rule="nonzero"></path>
                        <path d="M17.5283265,17.0586122 C17.332898,17.0586122 17.1722449,17.2187755 17.1722449,17.4151837 C17.1722449,17.6106122 17.332898,17.7742041 17.5283265,17.7742041 C17.7281633,17.7742041 17.8883265,17.6106122 17.8883265,17.4151837 C17.8878367,17.2187755 17.7281633,17.0586122 17.5283265,17.0586122 Z" id="Shape" fill-rule="nonzero"></path>
                        <path d="M17.5283265,15.148898 C17.332898,15.148898 17.1722449,15.3051429 17.1722449,15.5049796 C17.1722449,15.7013878 17.332898,15.861551 17.5283265,15.861551 C17.7281633,15.861551 17.8883265,15.7018776 17.8883265,15.5049796 C17.8878367,15.3056327 17.7281633,15.148898 17.5283265,15.148898 Z" id="Shape" fill-rule="nonzero"></path>
                        <path d="M17.5283265,18.9712653 C17.332898,18.9712653 17.1722449,19.1314286 17.1722449,19.3278367 C17.1722449,19.5271837 17.332898,19.6839184 17.5283265,19.6839184 C17.7281633,19.6839184 17.8883265,19.5276735 17.8883265,19.3278367 C17.8878367,19.1314286 17.7281633,18.9712653 17.5283265,18.9712653 Z" id="Shape" fill-rule="nonzero"></path>
                        <path d="M17.2790204,20.9872653 C17.2114286,21.0553469 17.1756735,21.144 17.1756735,21.2404898 C17.1756735,21.3369796 17.2114286,21.4256327 17.2790204,21.4932245 C17.3436735,21.5578776 17.4357551,21.5965714 17.5283265,21.5965714 C17.6248163,21.5965714 17.7173878,21.5578776 17.781551,21.4932245 C17.8491429,21.4256327 17.8844082,21.3330612 17.8844082,21.2404898 C17.8844082,21.1479184 17.8486531,21.0553469 17.781551,20.9872653 C17.6493061,20.856 17.4073469,20.856 17.2790204,20.9872653 Z" id="Shape" fill-rule="nonzero"></path>
                        <path d="M19.5982041,9.51722449 C19.5306122,9.58138776 19.4948571,9.67395918 19.4948571,9.76653061 C19.4948571,9.85910204 19.5306122,9.95167347 19.5982041,10.0197551 C19.6657959,10.0873469 19.7583673,10.123102 19.8514286,10.123102 C19.944,10.123102 20.0365714,10.0873469 20.1041633,10.0197551 C20.1678367,9.95167347 20.2075102,9.85959184 20.2075102,9.76653061 C20.2075102,9.67444898 20.1678367,9.58138776 20.1041633,9.51722449 C19.9684898,9.38204082 19.7299592,9.38204082 19.5982041,9.51722449 Z" id="Shape" fill-rule="nonzero"></path>
                        <path d="M19.8509388,17.0586122 C19.6515918,17.0586122 19.4943673,17.2187755 19.4943673,17.4176327 C19.4943673,17.6106122 19.651102,17.7707755 19.8509388,17.7707755 C20.0468571,17.7707755 20.2070204,17.6106122 20.2070204,17.4176327 C20.2070204,17.2187755 20.0468571,17.0586122 19.8509388,17.0586122 Z" id="Shape" fill-rule="nonzero"></path>
                        <path d="M19.8509388,13.2362449 C19.6515918,13.2362449 19.4943673,13.3924898 19.4943673,13.5928163 C19.4943673,13.7882449 19.651102,13.9493878 19.8509388,13.9493878 C20.0468571,13.9493878 20.2070204,13.7887347 20.2070204,13.5928163 C20.2070204,13.3924898 20.0468571,13.2362449 19.8509388,13.2362449 Z" id="Shape" fill-rule="nonzero"></path>
                        <path d="M19.8509388,15.148898 C19.6515918,15.148898 19.4943673,15.3051429 19.4943673,15.5049796 C19.4943673,15.7013878 19.651102,15.861551 19.8509388,15.861551 C20.0468571,15.861551 20.2070204,15.7018776 20.2070204,15.5049796 C20.2070204,15.3056327 20.0468571,15.148898 19.8509388,15.148898 Z" id="Shape" fill-rule="nonzero"></path>
                        <path d="M19.8509388,11.3235918 C19.6515918,11.3235918 19.4943673,11.4832653 19.4943673,11.6796735 C19.4943673,11.8760816 19.651102,12.0362449 19.8509388,12.0362449 C20.0468571,12.0362449 20.2070204,11.8760816 20.2070204,11.6796735 C20.2070204,11.4832653 20.0468571,11.3235918 19.8509388,11.3235918 Z" id="Shape" fill-rule="nonzero"></path>
                        <path d="M19.8509388,18.9712653 C19.6515918,18.9712653 19.4943673,19.1314286 19.4943673,19.3278367 C19.4943673,19.5232653 19.651102,19.6839184 19.8509388,19.6839184 C20.0468571,19.6839184 20.2070204,19.5237551 20.2070204,19.3278367 C20.2070204,19.1314286 20.0468571,18.9712653 19.8509388,18.9712653 Z" id="Shape" fill-rule="nonzero"></path>
                        <path d="M19.5982041,20.9872653 C19.5306122,21.0553469 19.4948571,21.1474286 19.4948571,21.2404898 C19.4948571,21.3325714 19.5306122,21.4256327 19.5982041,21.4932245 C19.6623673,21.5578776 19.754449,21.5965714 19.8514286,21.5965714 C19.944,21.5965714 20.0365714,21.5578776 20.1041633,21.4932245 C20.1678367,21.4256327 20.2075102,21.3330612 20.2075102,21.2404898 C20.2075102,21.1479184 20.1678367,21.0553469 20.1007347,20.9872653 C19.9684898,20.856 19.7299592,20.856 19.5982041,20.9872653 Z" id="Shape" fill-rule="nonzero"></path>
                    </g>
                </g>
            </g>
        </g>
    </g>
</svg>