<?xml version="1.0" encoding="UTF-8"?>
<svg width="24px" height="24px" viewBox="0 0 24 24" version="1.1" xmlns="http://www.w3.org/2000/svg" xmlns:xlink="http://www.w3.org/1999/xlink">
    <!-- Generator: sketchtool 51.1 (57501) - http://www.bohemiancoding.com/sketch -->
    <title>500C02DD-C73A-4DD8-BEB9-1A5F795036AF</title>
    <desc>Created with sketchtool.</desc>
    <defs></defs>
    <g id="Burger-Menu" stroke="none" stroke-width="1" fill="none" fill-rule="evenodd">
        <g id="Burger-Menu---Visitor" transform="translate(-78.000000, -220.000000)">
            <g id="Menu" transform="translate(60.000000, 0.000000)">
                <g id="ic-katalog" transform="translate(15.000000, 217.000000)">
                    <rect id="Rectangle" x="0" y="0" width="30" height="30"></rect>
                    <g id="Group" transform="translate(3.000000, 3.000000)" fill="#FFAD00">
                        <rect id="Rectangle-3" fill-opacity="0.2" x="0.5" y="1" width="10" height="23"></rect>
                        <path d="M18.3080816,21.1939592 C18.1111837,21.1939592 17.9515102,21.3531429 17.9515102,21.5500408 L17.9515102,22.8514286 C17.9515102,23.0478367 17.7918367,23.2084898 17.5954286,23.2084898 L1.20930612,23.2084898 C1.01289796,23.2084898 0.852734694,23.0483265 0.852734694,22.8514286 L0.852734694,1.47869388 C0.852734694,1.28228571 1.01240816,1.12212245 1.20930612,1.12212245 L4.77159184,1.12212245 L4.77159184,1.47869388 C4.77159184,2.46122449 5.57044898,3.26008163 6.5524898,3.26008163 L12.2522449,3.26008163 C13.2342857,3.26008163 14.0336327,2.46122449 14.0336327,1.47869388 L14.0336327,1.12212245 L17.5959184,1.12212245 C17.7923265,1.12212245 17.952,1.28179592 17.952,1.47869388 L17.952,8.42742857 C17.952,8.62383673 18.1111837,8.7844898 18.3085714,8.7844898 C18.5054694,8.7844898 18.6646531,8.62432653 18.6646531,8.42742857 L18.6646531,1.47869388 C18.6646531,0.889959184 18.1851429,0.409959184 17.5959184,0.409959184 L13.677551,0.409959184 L5.12816327,0.409959184 L1.20979592,0.409959184 C0.620571429,0.409959184 0.141061224,0.889469388 0.141061224,1.47869388 L0.141061224,22.8514286 C0.141061224,23.4411429 0.620571429,23.9206531 1.20979592,23.9206531 L17.5959184,23.9206531 C18.1851429,23.9206531 18.6646531,23.4411429 18.6646531,22.8514286 L18.6646531,21.5500408 C18.6641633,21.3531429 18.5049796,21.1939592 18.3080816,21.1939592 Z M13.3209796,1.12261224 L13.3209796,1.47918367 C13.3209796,2.06840816 12.8414694,2.54791837 12.2522449,2.54791837 L6.5524898,2.54791837 C5.96326531,2.54791837 5.4842449,2.06840816 5.4842449,1.47918367 L5.4842449,1.12261224 L13.3209796,1.12261224 Z" id="Shape" fill-rule="nonzero"></path>
                        <path d="M15.962449,5.81289796 C15.962449,5.6164898 15.8032653,5.45681633 15.6058776,5.45681633 L7.11673469,5.45681633 C6.91983673,5.45681633 6.76016327,5.616 6.76016327,5.81289796 C6.76016327,6.00979592 6.91983673,6.16995918 7.11673469,6.16995918 L15.6058776,6.16995918 C15.8032653,6.16946939 15.962449,6.00930612 15.962449,5.81289796 Z" id="Shape" fill-rule="nonzero"></path>
                        <path d="M20.0404898,9.35069388 C18.9511837,9.35069388 17.9201633,9.85273469 17.2393469,10.6893061 C16.5590204,9.85273469 15.5270204,9.35069388 14.4382041,9.35069388 C12.4471837,9.35069388 10.8274286,10.9709388 10.8274286,12.9614694 C10.8274286,16.9503673 16.7995102,20.6444082 17.0537143,20.7991837 C17.1110204,20.834449 17.1756735,20.8515918 17.2393469,20.8515918 C17.3035102,20.8515918 17.3681633,20.834449 17.4249796,20.7991837 C17.6796735,20.6444082 23.6507755,16.9503673 23.6507755,12.9614694 C23.6512653,10.9709388 22.0310204,9.35069388 20.0404898,9.35069388 Z M17.2393469,20.0728163 C16.2382041,19.4213878 11.5395918,16.1882449 11.5395918,12.9614694 C11.5395918,11.3627755 12.8395102,10.0628571 14.4377143,10.0628571 C15.456,10.0628571 16.4115918,10.610449 16.9322449,11.4920816 C17.0610612,11.7085714 17.4171429,11.7085714 17.5454694,11.4920816 C18.0661224,10.610449 19.0222041,10.0628571 20.0395102,10.0628571 C21.6377143,10.0628571 22.9376327,11.3627755 22.9376327,12.9614694 C22.9386122,16.1853061 18.24,19.4204082 17.2393469,20.0728163 Z" id="Shape" fill-rule="nonzero"></path>
                        <path d="M20.2623673,12.748898 L17.256,16.132898 L15.8982857,14.7222857 C15.7621224,14.5802449 15.5358367,14.5758367 15.3947755,14.712 C15.2527347,14.8491429 15.2483265,15.074449 15.3849796,15.2155102 L17.0101224,16.9043265 C17.0772245,16.9743673 17.1702857,17.013551 17.2667755,17.013551 C17.2687347,17.013551 17.2711837,17.013551 17.2741224,17.013551 C17.3730612,17.0115918 17.467102,16.9684898 17.5332245,16.8940408 L20.7952653,13.2210612 C20.9260408,13.0741224 20.9128163,12.8488163 20.7653878,12.7185306 C20.6179592,12.5882449 20.3931429,12.6009796 20.2623673,12.748898 Z" id="Shape" fill-rule="nonzero"></path>
                        <path d="M4.26710204,4.38759184 C3.48146939,4.38759184 2.84228571,5.02726531 2.84228571,5.81240816 C2.84228571,6.59804082 3.48146939,7.23722449 4.26710204,7.23722449 C5.05273469,7.23722449 5.69191837,6.59804082 5.69191837,5.81240816 C5.69191837,5.02726531 5.05273469,4.38759184 4.26710204,4.38759184 Z M4.26710204,6.52555102 C3.87428571,6.52555102 3.55493878,6.20620408 3.55493878,5.81289796 C3.55493878,5.41959184 3.87428571,5.10073469 4.26710204,5.10073469 C4.65991837,5.10073469 4.9797551,5.41959184 4.9797551,5.81289796 C4.9797551,6.20620408 4.65991837,6.52555102 4.26710204,6.52555102 Z" id="Shape" fill-rule="nonzero"></path>
                        <path d="M9.90661224,10.0883265 L7.11722449,10.0883265 C6.92032653,10.0883265 6.76065306,10.2475102 6.76065306,10.4444082 C6.76065306,10.6413061 6.92032653,10.8009796 7.11722449,10.8009796 L9.90661224,10.8009796 C10.1035102,10.8009796 10.2626939,10.6413061 10.2626939,10.4444082 C10.2626939,10.2475102 10.1030204,10.0883265 9.90661224,10.0883265 Z" id="Shape" fill-rule="nonzero"></path>
                        <path d="M4.26710204,9.01959184 C3.48146939,9.01959184 2.84228571,9.65877551 2.84228571,10.4444082 C2.84228571,11.2300408 3.48146939,11.8692245 4.26710204,11.8692245 C5.05273469,11.8692245 5.69191837,11.229551 5.69191837,10.4444082 C5.69191837,9.65828571 5.05273469,9.01959184 4.26710204,9.01959184 Z M4.26710204,11.1565714 C3.87428571,11.1565714 3.55493878,10.8377143 3.55493878,10.4444082 C3.55493878,10.0515918 3.87428571,9.7317551 4.26710204,9.7317551 C4.65991837,9.7317551 4.9797551,10.0515918 4.9797551,10.4444082 C4.9797551,10.8372245 4.65991837,11.1565714 4.26710204,11.1565714 Z" id="Shape" fill-rule="nonzero"></path>
                        <path d="M7.11722449,15.432 L9.90661224,15.432 C10.1035102,15.432 10.2626939,15.2718367 10.2626939,15.0749388 C10.2626939,14.8780408 10.1035102,14.7188571 9.90661224,14.7188571 L7.11722449,14.7188571 C6.92032653,14.7188571 6.76065306,14.8780408 6.76065306,15.0749388 C6.76065306,15.2718367 6.92032653,15.432 7.11722449,15.432 Z" id="Shape" fill-rule="nonzero"></path>
                        <path d="M4.26710204,13.6506122 C3.48146939,13.6506122 2.84228571,14.2902857 2.84228571,15.0754286 C2.84228571,15.8610612 3.48146939,16.5002449 4.26710204,16.5002449 C5.05273469,16.5002449 5.69191837,15.8610612 5.69191837,15.0754286 C5.69191837,14.2897959 5.05273469,13.6506122 4.26710204,13.6506122 Z M4.26710204,15.7880816 C3.87428571,15.7880816 3.55493878,15.4687347 3.55493878,15.0754286 C3.55493878,14.6821224 3.87428571,14.3632653 4.26710204,14.3632653 C4.65991837,14.3632653 4.9797551,14.6821224 4.9797551,15.0754286 C4.9797551,15.4687347 4.65991837,15.7880816 4.26710204,15.7880816 Z" id="Shape" fill-rule="nonzero"></path>
                        <path d="M7.11722449,20.0630204 L12.7562449,20.0630204 C12.9531429,20.0630204 13.1123265,19.9033469 13.1123265,19.706449 C13.1123265,19.509551 12.9531429,19.3503673 12.7562449,19.3503673 L7.11722449,19.3503673 C6.92032653,19.3503673 6.76065306,19.509551 6.76065306,19.706449 C6.76065306,19.9033469 6.92032653,20.0630204 7.11722449,20.0630204 Z" id="Shape" fill-rule="nonzero"></path>
                        <path d="M4.26710204,18.2821224 C3.48146939,18.2821224 2.84228571,18.9213061 2.84228571,19.7069388 C2.84228571,20.4925714 3.48146939,21.1317551 4.26710204,21.1317551 C5.05273469,21.1317551 5.69191837,20.4920816 5.69191837,19.7069388 C5.69191837,18.9208163 5.05273469,18.2821224 4.26710204,18.2821224 Z M4.26710204,20.419102 C3.87428571,20.419102 3.55493878,20.1002449 3.55493878,19.7069388 C3.55493878,19.3136327 3.87428571,18.9942857 4.26710204,18.9942857 C4.65991837,18.9942857 4.9797551,19.3136327 4.9797551,19.7069388 C4.9797551,20.1002449 4.65991837,20.419102 4.26710204,20.419102 Z" id="Shape" fill-rule="nonzero"></path>
                    </g>
                </g>
            </g>
        </g>
    </g>
</svg>