<svg xmlns="http://www.w3.org/2000/svg" width="115" height="123" viewBox="0 0 115 123">
    <g fill="none" fill-rule="evenodd">
        <path d="M-9-6h136v136H-9z"/>
        <g fill-rule="nonzero">
            <path fill="#FFA75B" d="M27.782 3.77H56.89v15.175H20.542v-7.87c.003-4.027 3.252-7.305 7.24-7.305zM57.323 118.984H27.785c-3.99 0-7.238-3.279-7.238-7.31v-7.556h36.776v14.866zM57.177 100.4h-36.63V59.556c8.172 0 15.207-4.507 18.405-10.964 2.13 4.305 8.206 7.96 18.225 10.964V100.4z"/>
            <path fill="#FFF" d="M48.153 13.06h18.403c1.017 0 1.84-.83 1.84-1.86a1.849 1.849 0 0 0-1.84-1.858H48.153c-1.017 0-1.844.83-1.844 1.858 0 1.03.827 1.86 1.844 1.86zM38.95 113.416a1.856 1.856 0 0 0 1.842-1.858c0-1.04-.83-1.862-1.842-1.862-1.013 0-1.843.82-1.843 1.862.003 1.02.83 1.858 1.843 1.858zM57.355 113.416c1.01 0 1.84-.836 1.84-1.858 0-1.04-.83-1.862-1.84-1.862-1.013 0-1.843.82-1.843 1.862 0 1.02.828 1.858 1.843 1.858zM75.757 113.416a1.856 1.856 0 0 0 1.842-1.858c0-1.04-.827-1.862-1.842-1.862-1.01 0-1.84.82-1.84 1.862 0 1.02.83 1.858 1.84 1.858z"/>
            <ellipse cx="74.702" cy="11.203" fill="#FFF" rx="1.84" ry="1.858"/>
            <path fill="#F4A969" d="M73.79 42.7c-1.014 7.394-7.999 13.138-16.438 13.138-8.437 0-15.424-5.744-16.436-13.138H73.79z"/>
            <path fill="#F5821F" d="M4.109 42.7h32.874c-1.014 7.394-7.999 13.138-16.438 13.138-8.44 0-15.422-5.746-16.436-13.138zM94.164 55.836c-8.44 0-15.424-5.744-16.438-13.139h32.877c-1.017 7.395-8.002 13.139-16.439 13.139z"/>
            <path fill="#FFF" d="M114.406 40.84c0-.031-.015-.054-.015-.082a1.86 1.86 0 0 0-.119-.598c-.005-.015-.007-.036-.012-.051a1.953 1.953 0 0 0-.279-.46L97.846 20.133v-9.058c0-6.079-4.899-11.02-10.917-11.02H27.787c-6.02 0-10.917 4.944-10.917 11.02v9.058L.735 39.649a1.903 1.903 0 0 0-.278.46c-.005.015-.007.036-.013.051-.075.19-.11.39-.121.598 0 .03-.018.054-.018.082 0 9.155 7.154 16.782 16.565 18.386v52.445c0 6.078 4.9 11.025 10.917 11.025H86.93c6.02 0 10.917-4.95 10.917-11.025V59.226c9.404-1.602 16.56-9.231 16.56-18.386zM68.451 22.665l4.833 16.32H41.42l4.835-16.32h22.196zm5.34 20.035c-1.015 7.394-8 13.138-16.439 13.138-8.437 0-15.424-5.744-16.436-13.138H73.79zm3.337-3.715l-4.833-16.32h22.849l13.49 16.32H77.128zM27.782 3.77h59.142c3.991 0 7.238 3.275 7.238 7.305v7.87h-73.62v-7.87c.003-4.027 3.252-7.305 7.24-7.305zm-8.214 18.895h22.849l-4.836 16.32H6.078l13.49-16.32zM4.108 42.7h32.875c-1.014 7.394-7.999 13.138-16.438 13.138-8.44 0-15.422-5.746-16.436-13.138zm90.056 68.973c0 4.032-3.246 7.31-7.237 7.31H27.785c-3.99 0-7.238-3.278-7.238-7.31v-7.555h73.617v7.555zm0-11.273H20.547V59.556c8.172 0 15.207-4.507 18.405-10.964 3.196 6.457 10.234 10.964 18.403 10.964 8.17 0 15.208-4.507 18.402-10.964 3.196 6.457 10.236 10.964 18.405 10.964V100.4h.002zm0-44.564c-8.44 0-15.424-5.744-16.438-13.139h32.877c-1.017 7.395-8.002 13.139-16.439 13.139z"/>
        </g>
    </g>
</svg>
