<svg xmlns="http://www.w3.org/2000/svg" width="97" height="121" viewBox="0 0 97 121">
    <g fill="none" fill-rule="evenodd">
        <path d="M-20-8h136v136H-20z"/>
        <g fill-rule="nonzero">
            <path fill="#FFA75B" d="M50.084 20.282a28.648 28.648 0 0 0-1.973-.068c-15.588 0-28.272 12.642-28.272 28.181 0 15.539 12.682 28.181 28.272 28.181.664 0 1.322-.023 1.975-.068v12.643a3.848 3.848 0 0 0-3.956 0l-5.574 3.345a.187.187 0 0 1-.239-.045l-4.124-5.085a3.84 3.84 0 0 0-3.705-1.354l-6.372 1.211a.184.184 0 0 1-.209-.12l-2.168-6.24a3.831 3.831 0 0 0-2.991-2.522l-6.43-1.071a.18.18 0 0 1-.151-.18l.073-6.652a3.826 3.826 0 0 0-1.934-3.36l-5.707-3.252a.187.187 0 0 1-.083-.225l2.323-6.233a3.818 3.818 0 0 0-.668-3.803L3.884 48.51c-.039-.045 1.39-1.808 4.287-5.29a3.831 3.831 0 0 0 .666-3.8l-2.324-6.236a.183.183 0 0 1 .08-.225l5.71-3.252a3.833 3.833 0 0 0 1.934-3.36l-.073-6.654c0-.087.063-.165.154-.18l6.427-1.066a3.838 3.838 0 0 0 2.994-2.524l2.17-6.238a.186.186 0 0 1 .207-.123l6.377 1.212a3.83 3.83 0 0 0 3.7-1.355l4.124-5.087a.19.19 0 0 1 .236-.042l5.574 3.344a3.854 3.854 0 0 0 3.956 0v12.648z"/>
            <path fill="#FFA75B" d="M34.136 115.014l-7.357-14.552a1.85 1.85 0 0 0-1.867-.987l-16.216 2.08 10.532-19.774.917.155a.18.18 0 0 1 .143.12l2.168 6.244c.618 1.782 2.49 2.854 4.343 2.503l6.372-1.209a.187.187 0 0 1 .176.063l4.127 5.087a3.847 3.847 0 0 0 2.992 1.414 3.78 3.78 0 0 0 1.969-.546l2.981-1.785-11.28 21.187z"/>
            <path fill="#FFF" d="M95.12 50.866a3.806 3.806 0 0 0 0-4.94l-4.285-5.049a.185.185 0 0 1-.033-.185l2.321-6.238a3.803 3.803 0 0 0-1.693-4.65l-5.71-3.251a.183.183 0 0 1-.092-.16l.073-6.65a3.811 3.811 0 0 0-3.205-3.812l-6.426-1.07a.18.18 0 0 1-.143-.12l-2.167-6.24c-.618-1.783-2.492-2.854-4.346-2.506l-6.367 1.209a.193.193 0 0 1-.181-.063L58.74 2.057a3.848 3.848 0 0 0-4.963-.874l-5.574 3.342a.199.199 0 0 1-.19 0L42.44 1.183a3.851 3.851 0 0 0-4.964.871l-4.124 5.087a.175.175 0 0 1-.176.063l-6.375-1.21a3.85 3.85 0 0 0-4.34 2.507l-2.17 6.24a.181.181 0 0 1-.143.12l-6.428 1.07a3.809 3.809 0 0 0-3.203 3.812l.073 6.65c0 .065-.035.13-.093.16l-5.707 3.25a3.801 3.801 0 0 0-1.695 4.65l2.323 6.24a.185.185 0 0 1-.032.182L1.1 45.927a3.806 3.806 0 0 0 0 4.94l4.286 5.051.032.183-2.323 6.236a3.809 3.809 0 0 0 1.693 4.651l5.707 3.255c.057.03.095.092.093.157l-.073 6.647a3.803 3.803 0 0 0 3.202 3.813l1.713.283-11.617 21.812c-.319.6-.279 1.33.11 1.89.39.56 1.06.849 1.736.771l18.435-2.368 8.364 16.548c.309.605.93.99 1.612.996h.02c.676 0 1.297-.368 1.613-.966L48.106 96.54l12.401 23.285c.317.595.94.966 1.615.966h.02a1.828 1.828 0 0 0 1.613-.996l8.364-16.548 18.437 2.368a1.84 1.84 0 0 0 1.736-.77c.389-.562.432-1.29.11-1.891L80.785 81.143l1.708-.283a3.807 3.807 0 0 0 3.205-3.81l-.073-6.647a.18.18 0 0 1 .093-.16l5.712-3.255a3.801 3.801 0 0 0 1.69-4.649L90.8 56.1a.182.182 0 0 1 .03-.181l4.29-5.052zm-60.984 64.148l-7.357-14.552a1.85 1.85 0 0 0-1.867-.987l-16.216 2.08 10.532-19.774.917.155a.18.18 0 0 1 .143.12l2.168 6.244c.618 1.782 2.49 2.854 4.343 2.503l6.372-1.209a.187.187 0 0 1 .176.063l4.127 5.087a3.847 3.847 0 0 0 2.992 1.414 3.78 3.78 0 0 0 1.969-.546l2.981-1.785-11.28 21.187zm53.386-13.458l-16.216-2.08c-.762-.08-1.518.295-1.867.986l-7.357 14.552-11.285-21.189 2.984 1.787a3.853 3.853 0 0 0 4.963-.87l4.124-5.088a.186.186 0 0 1 .179-.062l6.372 1.209c1.861.353 3.728-.721 4.346-2.504l2.167-6.243a.185.185 0 0 1 .143-.12l.917-.156 10.53 19.778zm-.146-44.191l2.324 6.236a.19.19 0 0 1-.08.225l-5.71 3.252a3.827 3.827 0 0 0-1.934 3.362l.073 6.65a.185.185 0 0 1-.154.18l-6.427 1.071a3.831 3.831 0 0 0-2.992 2.521l-2.168 6.241a.183.183 0 0 1-.208.12l-6.37-1.211a3.853 3.853 0 0 0-3.705 1.354l-4.124 5.085a.19.19 0 0 1-.239.045l-5.576-3.345a3.848 3.848 0 0 0-3.956 0l-5.574 3.345a.187.187 0 0 1-.239-.045l-4.124-5.085a3.84 3.84 0 0 0-3.705-1.354l-6.372 1.211a.184.184 0 0 1-.209-.12l-2.168-6.24a3.831 3.831 0 0 0-2.991-2.522l-6.43-1.071a.18.18 0 0 1-.151-.18l.073-6.652a3.826 3.826 0 0 0-1.934-3.36l-5.707-3.252a.187.187 0 0 1-.083-.225l2.323-6.233a3.818 3.818 0 0 0-.668-3.803L3.884 48.51a.181.181 0 0 1 0-.235l4.287-5.054a3.831 3.831 0 0 0 .666-3.8l-2.324-6.237a.183.183 0 0 1 .08-.225l5.71-3.252a3.833 3.833 0 0 0 1.934-3.36l-.073-6.654c0-.087.063-.165.154-.18l6.427-1.066a3.838 3.838 0 0 0 2.994-2.524l2.17-6.238a.186.186 0 0 1 .207-.123l6.377 1.212a3.83 3.83 0 0 0 3.7-1.355l4.124-5.087a.19.19 0 0 1 .236-.042l5.574 3.344a3.854 3.854 0 0 0 3.956 0l5.574-3.344a.178.178 0 0 1 .239.045l4.124 5.084a3.843 3.843 0 0 0 3.702 1.355l6.37-1.212a.18.18 0 0 1 .209.123l2.168 6.238a3.842 3.842 0 0 0 2.994 2.524l6.425 1.066c.09.015.156.095.156.183l-.073 6.652a3.826 3.826 0 0 0 1.934 3.36l5.71 3.251a.187.187 0 0 1 .082.225l-2.323 6.236a3.826 3.826 0 0 0 .668 3.8l4.287 5.055a.181.181 0 0 1 0 .235l-4.287 5.055a3.833 3.833 0 0 0-.666 3.8z"/>
            <path fill="#FFF" d="M48.111 16.577c-17.602 0-31.925 14.272-31.925 31.82 0 17.547 14.323 31.822 31.925 31.822 17.606 0 31.928-14.275 31.928-31.821 0-17.55-14.322-31.821-31.928-31.821zm0 60c-15.59 0-28.272-12.643-28.272-28.182 0-15.539 12.684-28.18 28.272-28.18 15.591 0 28.273 12.641 28.273 28.18S63.702 76.576 48.111 76.576z"/>
            <path fill="#FFF" d="M31.844 53.683V39.465c0-1.107.879-1.983 1.99-1.983h6.28c2.3 0 4.083.644 5.272 1.829 1.008 1.004 1.55 2.42 1.55 4.12v.052c0 2.834-1.42 4.585-3.617 5.487l2.765 3.348c.387.49.646.902.646 1.52 0 1.107-.93 1.828-1.887 1.828-.904 0-1.499-.437-1.964-1.03l-3.876-4.894h-3.179v3.941a1.971 1.971 0 0 1-1.99 1.983 1.971 1.971 0 0 1-1.99-1.983zm3.98-7.444h4.032c1.938 0 3.05-1.03 3.05-2.55v-.051c0-1.7-1.19-2.576-3.128-2.576h-3.954v5.177zM50.115 57.83V43.51a1.96 1.96 0 0 1 1.964-1.958 1.96 1.96 0 0 1 1.965 1.957v.18c.956-1.287 2.274-2.24 4.315-2.24 3.23 0 6.306 2.524 6.306 7.134v.052c0 4.61-3.024 7.134-6.306 7.134-2.093 0-3.385-.953-4.315-2.06v4.121a1.96 1.96 0 0 1-1.965 1.958 1.96 1.96 0 0 1-1.964-1.958zm7.236-5.383c1.835 0 3.386-1.494 3.386-3.812v-.052c0-2.292-1.55-3.812-3.386-3.812-1.834 0-3.36 1.52-3.36 3.812v.052c0 2.292 1.526 3.812 3.36 3.812z"/>
        </g>
    </g>
</svg>
