<svg width="32" height="32" viewBox="0 0 32 32" fill="none" xmlns="http://www.w3.org/2000/svg">
<path fill-rule="evenodd" clip-rule="evenodd" d="M13.1227 1.3335H16.0124V21.3335L9.92688 12.7562H13.1227V1.3335Z" fill="#FFAD00" fill-opacity="0.2"/>
<path d="M15.6466 20.7295L10.0953 13.3975C10.0953 13.3975 9.24939 12.5255 10.1649 12.5255H13.2953V11.0362V1.8535C13.2953 1.8535 13.1687 1.3335 13.8852 1.3335H18.2887C18.8049 1.3335 18.7937 1.77083 18.7937 1.77083V12.3068H21.6807C22.7937 12.3068 21.9562 13.2188 21.9562 13.2188C21.9562 13.2188 17.2327 20.0722 16.5732 20.7908C16.1002 21.3108 15.6452 20.7295 15.6452 20.7295H15.6466Z" stroke="#FFAD00" stroke-width="0.75"/>
<path fill-rule="evenodd" clip-rule="evenodd" d="M1.40797 21.3335H5.5151V27.1788H16.2003L16.2128 30.5588C7.30432 30.5588 2.58919 30.4428 2.06884 30.2095C1.5471 29.9762 1.32728 27.0175 1.40797 21.3335Z" fill="#FFAD00" fill-opacity="0.2"/>
<path d="M26.8853 21.3335V27.1442H5.5135V21.3335H1.40637V28.8522C1.40637 29.7948 2.32463 30.5588 3.46272 30.5588H28.9375C30.0742 30.5588 30.9925 29.7948 30.9925 28.8522V21.3335H26.8853V21.3335Z" stroke="#FFAD00" stroke-width="0.75"/>
</svg>
