<svg width="32" height="32" viewBox="0 0 32 32" fill="none" xmlns="http://www.w3.org/2000/svg">
<g clip-path="url(#clip0)">
<path fill-rule="evenodd" clip-rule="evenodd" d="M15.6774 30.4389C5.86138 30.4389 0.954712 25.5309 0.954712 15.7149C0.954712 5.90019 5.86138 0.992188 15.6774 0.992188V30.4389Z" fill="#FFAD00" fill-opacity="0.2"/>
<path d="M29.6574 22.7991C30.7654 20.6137 31.3507 18.1697 31.3507 15.7124C31.3507 7.07106 24.32 0.0390625 15.6774 0.0390625C7.03603 0.0390625 0.00402832 7.07106 0.00402832 15.7124C0.00402832 24.3551 7.03603 31.3857 15.6774 31.3857C18.1334 31.3857 20.5787 30.8004 22.7627 29.6924L30.7787 31.3764C30.8107 31.3831 30.8454 31.3857 30.876 31.3857C31.0014 31.3857 31.1214 31.3377 31.212 31.2471C31.3254 31.1324 31.3734 30.9711 31.3414 30.8137L29.6574 22.8004V22.7991ZM22.7934 28.7297C22.684 28.7057 22.572 28.7217 22.476 28.7724C20.3587 29.8764 18.072 30.4364 15.6774 30.4364C7.55736 30.4364 0.954695 23.8324 0.954695 15.7124C0.954695 7.59506 7.55869 0.989729 15.6774 0.989729C23.7974 0.989729 30.4 7.59506 30.4 15.7124C30.4 18.1071 29.84 20.3951 28.736 22.5124C28.684 22.6097 28.6694 22.7217 28.692 22.8297L30.2614 30.2977L22.7934 28.7297V28.7297Z" fill="#FFAD00"/>
<path d="M20.3401 7.63281C19.3587 7.63281 18.5601 8.43281 18.5601 9.41548V9.44215C14.7801 12.7328 11.5067 12.0835 10.5467 11.7861V11.1941C10.5467 10.9315 10.3334 10.7195 10.0707 10.7195H7.24006C5.1454 10.7195 3.44006 12.4235 3.44006 14.5195V16.8928C3.44006 18.8195 4.88006 20.4101 6.74006 20.6568V25.0075C6.74006 25.1648 6.82006 25.3141 6.9494 25.4008C7.86406 26.0141 8.85606 26.5341 9.89606 26.9488C9.95206 26.9715 10.0107 26.9835 10.0694 26.9835C10.1641 26.9835 10.2574 26.9555 10.3374 26.9008C10.4667 26.8128 10.5454 26.6648 10.5454 26.5075V19.6421C11.5094 19.3541 14.8107 18.7221 18.5587 21.9861V21.9995C18.5587 22.9821 19.3587 23.7808 20.3401 23.7808C21.3214 23.7808 22.1214 22.9808 22.1214 21.9995V9.41548C22.1214 8.43281 21.3214 7.63281 20.3401 7.63281V7.63281ZM18.5601 10.6755V15.2328H10.5467V12.7715C11.8694 13.1088 14.9947 13.4501 18.5601 10.6755ZM4.3894 16.8941V14.5195C4.3894 12.9488 5.6694 11.6688 7.24006 11.6688H9.59606V19.7435H7.24006C5.66806 19.7435 4.3894 18.4648 4.3894 16.8941V16.8941ZM9.59606 25.7901C8.93206 25.4888 8.2934 25.1421 7.6894 24.7501V20.6955H9.59606V25.7915V25.7901ZM12.3947 18.4328C11.6147 18.4328 10.9814 18.5448 10.5454 18.6555V16.1821H18.5587V20.7528C16.1707 18.8928 13.9801 18.4328 12.3947 18.4328V18.4328ZM21.1721 22.0008C21.1721 22.4581 20.7987 22.8315 20.3401 22.8315C19.8814 22.8315 19.5094 22.4581 19.5094 22.0008V9.41415C19.5094 8.95548 19.8827 8.58348 20.3401 8.58348C20.7987 8.58348 21.1721 8.95548 21.1721 9.41415V22.0008ZM26.8361 10.9141C26.6041 11.0341 26.5134 11.3221 26.6361 11.5541C27.8361 13.8448 27.8361 17.5701 26.6361 19.8595C26.5134 20.0915 26.6041 20.3795 26.8361 20.4995C26.9067 20.5381 26.9827 20.5541 27.0561 20.5541C27.2267 20.5541 27.3921 20.4608 27.4774 20.3008C28.8267 17.7248 28.8267 13.6875 27.4774 11.1141C27.3574 10.8821 27.0694 10.7915 26.8374 10.9141H26.8361ZM24.4614 12.2661C24.2281 12.3875 24.1387 12.6741 24.2614 12.9061C25.0694 14.4501 25.0694 16.9621 24.2614 18.5061C24.1387 18.7395 24.2281 19.0261 24.4614 19.1475C24.5321 19.1848 24.6081 19.2008 24.6814 19.2008C24.8521 19.2008 25.0174 19.1075 25.1027 18.9475C26.0547 17.1288 26.0547 14.2808 25.1027 12.4648C24.9801 12.2341 24.6934 12.1435 24.4614 12.2648V12.2661Z" fill="#FFAD00"/>
</g>
<defs>
<clipPath id="clip0">
<rect width="32" height="32" fill="white"/>
</clipPath>
</defs>
</svg>
